<svg width="24" height="24" viewBox="0 0 24 24" fill="none" xmlns="http://www.w3.org/2000/svg">
<path d="M4 22V7C4 5.11438 4 4.17157 4.58579 3.58579C5.17157 3 6.11438 3 8 3H16C17.8856 3 18.8284 3 19.4142 3.58579C20 4.17157 20 5.11438 20 7V22" fill="var(--icon-fill, currentColor)"/>
<path d="M2 22H22" stroke="currentColor" stroke-width="1.5" stroke-linecap="round"/>
<path d="M4 22V7C4 5.11438 4 4.17157 4.58579 3.58579C5.17157 3 6.11438 3 8 3H16C17.8856 3 18.8284 3 19.4142 3.58579C20 4.17157 20 5.11438 20 7V22" stroke="currentColor" stroke-width="1.5" stroke-linecap="round" stroke-linejoin="round"/>
<path d="M8 7H10" stroke="currentColor" stroke-width="1.5" stroke-linecap="round"/>
<path d="M14 7H16" stroke="currentColor" stroke-width="1.5" stroke-linecap="round"/>
<path d="M8 11H10" stroke="currentColor" stroke-width="1.5" stroke-linecap="round"/>
<path d="M14 11H16" stroke="currentColor" stroke-width="1.5" stroke-linecap="round"/>
<path d="M8 15H10" stroke="currentColor" stroke-width="1.5" stroke-linecap="round"/>
<path d="M14 15H16" stroke="currentColor" stroke-width="1.5" stroke-linecap="round"/>
<path d="M10 22V19C10 18.0572 10 17.5858 10.2929 17.2929C10.5858 17 11.0572 17 12 17C12.9428 17 13.4142 17 13.7071 17.2929C14 17.5858 14 18.0572 14 19V22" stroke="currentColor" stroke-width="1.5" stroke-linecap="round" stroke-linejoin="round"/>
</svg>
